PathFileType	4	(X/Y/Z)	C:/Users/beibeiliu/ov580/test_trc/User3\sequence.7_training_dense_right.trc
DataRate	CameraRate	NumFrames	NumMarkers	Units	OrigDataRate	OrigDataStartFrame	OrigNumFrames
120	120	16	19	mm	120	26	200
Frame#	Time	ThumbCMC			ThumbMCP			ThumbIP			ThumbTip			IndexMCP			IndexPIP			IndexTip			MiddleMCP			MiddlePIP			MiddleTip			RingMCP			RingPIP			RingTip			PinkyMCP			PinkyPIP			PinkyTip			BackHand1			BackHand2			BackHand3	
		X0	Y0	Z0	X1	Y1	Z1	X2	Y2	Z2	X3	Y3	Z3	X4	Y4	Z4	X5	Y5	Z5	X6	Y6	Z6	X7	Y7	Z7	X8	Y8	Z8	X9	Y9	Z9	X10	Y10	Z10	X11	Y11	Z11	X12	Y12	Z12	X13	Y13	Z13	X14	Y14	Z14	X15	Y15	Z15	X16	Y16	Z16	X17	Y17	Z17	X18	Y18	Z18	
25	0.208333	68.8591	-12.4284	-27.6174	58.1499	-25.6287	-51.5937	50.5912	-35.1231	-74.4957	51.7239	-44.5213	-99.3742	83.9925	16.131	-92.0878	76.2444	16.1892	-121.185	72.1304	5.24355	-147.218	119.252	19.4248	-98.6491	122.665	17.9451	-125.926	121.754	0.00603446	-161.33	133.765	-9.83813	-93.7735	130.397	-37.8989	-109.632	119.978	-61.5754	-99.3082	148.848	-19.2748	-80.6747	142.441	-44.3846	-88.8592	126.504	-61.0344	-68.0648	133.123	12.7982	-36.9918	131.472	10.3674	-8.28078	98.7021	14.9929	-25.3419	
26	0.216667	66.5554	-20.7502	-25.1866	55.539	-38.1824	-45.9384	43.1913	-53.5117	-67.9245	42.5947	-67.8207	-89.7739	74.5919	-6.83457	-95.0492	69.1107	-12.9521	-122.714	59.3042	-31.274	-145.173	107.064	-3.33896	-100.447	112.031	-15.0452	-132.464	114.171	-37.1047	-155.172	122.25	-29.6019	-95.1176	120.061	-60.1811	-101.189	114.201	-83.7574	-79.352	142.422	-36.4693	-78.537	130.969	-61.1273	-81.1905	118.055	-72.1092	-58.943	122.087	3.89552	-45.2332	125.128	7.07735	-14.3792	90.4328	9.61533	-29.3239	
27	0.225	61.9963	-29.7082	-18.2287	51.7101	-53.6466	-35.751	42.3969	-74.974	-59.9726	39.6834	-92.1807	-72.0046	74.0488	-34.1464	-95.6708	64.558	-47.1962	-117.245	57.1523	-69.8362	-135.97	104.808	-32.8659	-100.455	109.471	-50.6802	-126.166	107.168	-82.4317	-144.398	123.844	-51.0854	-84.0906	118.898	-83.7175	-87.0947	114.112	-102.122	-58.8502	140.564	-54.7793	-69.8533	136.925	-82.4615	-65.9791	113.853	-87.8554	-43.5354	121.156	-10.1417	-48.2415	119.109	2.7381	-15.5146	88.1358	-3.74412	-36.2215	
28	0.233333	64.4112	-36.9151	-16.8823	52.5991	-63.7557	-30.5977	43.4657	-85.1295	-42.8901	37.8052	-106.199	-54.4945	69.5897	-54.4366	-91.2237	61.2846	-71.5238	-107.887	55.2135	-99.91	-121.438	103.768	-55.1715	-96.5705	103.948	-76.8513	-115.849	104.766	-112.331	-126.055	121.378	-72.6651	-77.5383	120.465	-102.053	-72.3638	111.469	-114.657	-44.6826	139.114	-71.1669	-61.3652	132.271	-97.2666	-53.7621	117.647	-100.58	-29.3806	120.127	-20.5145	-46.8752	122.73	-5.01215	-18.3284	86.5639	-13.7047	-37.7285	
29	0.241667	67.2388	-35.1539	-11.3952	52.117	-62.8155	-18.2793	35.1456	-87.7362	-29.8364	32.0262	-109.632	-40.1765	69.3683	-67.8212	-84.8662	57.3783	-85.0538	-97.6605	48.9779	-110.474	-104.882	101.803	-72.3576	-90.1286	99.3339	-99.5472	-103.889	90.7162	-134.841	-105.694	117.873	-84.778	-66.9989	110.819	-115.411	-57.8103	99.8689	-122.321	-28.2219	134.724	-83.4738	-52.3925	125.47	-109.142	-39.9658	111.429	-107.541	-16.339	122.693	-32.4063	-46.9548	128.429	-11.946	-21.0228	89.1176	-17.4561	-33.6787	
30	0.25	65.2995	-29.0294	-9.59897	45.0924	-52.682	-12.7608	26.7106	-72.4516	-17.9006	16.525	-91.9449	-23.4069	57.9263	-64.2474	-74.6063	45.4979	-86.4218	-88.4133	31.477	-107.202	-92.4237	89.5404	-80.5982	-80.0974	80.0741	-109.288	-91.6408	67.6316	-140.618	-85.4159	102.936	-95.3626	-58.7216	89.1109	-119.859	-46.3114	81.5569	-120.786	-11.8184	118.979	-94.8905	-44.1316	103.85	-113.757	-30.9059	91.401	-107.213	-7.67567	122.08	-41.9718	-42.3664	129.229	-22.5447	-21.2243	93.8831	-18.2122	-32.9645	
31	0.258333	69.7165	-12.5227	-8.51532	39.8594	-30.0646	-11.8437	16.4929	-40.93	-15.5472	-3.15887	-56.7455	-19.378	54.2093	-51.2843	-71.2324	29.0324	-66.371	-84.4609	9.84005	-85.68	-86.0408	73.4766	-77.1594	-75.398	55.9566	-100.904	-82.07	28.6385	-125.337	-73.0701	78.52	-91.8663	-50.5509	60.5195	-109.688	-34.1595	48.8098	-104.535	-7.2723	97.5585	-97.2211	-35.0993	76.5413	-107.115	-21.7585	64.6634	-91.1198	-0.266109	115.269	-46.7667	-40.0226	131.208	-26.0281	-19.8984	100.864	-17.5183	-32.8928	
32	0.266667	79.2191	10.3231	-9.65227	43.7192	4.41107	-14.8745	15.8278	3.87089	-20.9676	-5.82396	-5.46873	-24.1048	51.1209	-26.4828	-71.6948	19.7239	-30.0692	-85.8749	-2.52965	-38.5064	-86.0395	58.6947	-56.4567	-70.3355	29.2712	-71.0285	-79.9704	-0.297112	-86.7341	-70.3072	56.9434	-72.157	-45.8217	30.4264	-78.9079	-31.8893	21.3175	-69.5033	-0.73219	69.9921	-81.8145	-30.703	46.6873	-84.8631	-13.4506	43.1143	-59.3329	5.03015	109.911	-47.6533	-36.5594	128.436	-37.1222	-16.1244	104.118	-13.9517	-35.1333	
33	0.275	90.5809	24.5663	-11.9448	61.4007	35.3781	-16.2028	34.545	44.7099	-24.4828	9.93133	48.3205	-32.6508	51.6105	3.1314	-76.6594	28.0047	6.38542	-89.928	0.717712	5.87275	-92.8259	49.201	-33.3414	-68.4605	18.5206	-35.0871	-81.7938	-14.6314	-33.5935	-77.4254	36.2914	-43.1034	-44.0376	11.6037	-38.3983	-31.2865	4.7528	-26.1646	-4.49715	44.1324	-55.4191	-28.6269	22.9043	-46.5974	-13.9787	27.2171	-22.7535	8.57617	98.2615	-39.3638	-34.8864	117.333	-34.1985	-14.9399	107.836	-2.24165	-31.9671	
34	0.283333	100.287	32.7964	-14.7536	77.8532	55.1015	-24.2321	59.0128	67.9794	-32.6492	38.915	83.8147	-43.4744	59.7969	18.5877	-77.3701	40.1167	35.7109	-97.6431	18.7623	44.0987	-103.086	44.4044	-4.24529	-75.4658	18.6494	-0.0823103	-86.2171	-16.0432	13.4203	-85.3288	31.1926	-9.93076	-48.3882	7.59963	2.22806	-38.7348	3.33023	25.2151	-11.9093	30.6104	-23.3168	-30.1562	13.15	-6.24609	-17.4418	24.7571	13.9125	0.12309	84.8633	-29.3868	-28.4001	106.132	-29.8078	-7.55713	106.316	0.227152	-32.0793	
35	0.291667	113.479	26.4128	-14.9912	97.7731	53.6681	-33.9009	87.6851	74.31	-47.2872	71.6685	86.5431	-58.68	76.6905	22.4087	-86.8299	61.7949	34.1203	-104.068	48.065	53.4108	-117.665	49.3767	2.83517	-81.3373	27.9389	15.3116	-96.427	1.86812	35.7249	-101.264	33.6903	4.00746	-54.3224	16.1422	31.7839	-51.8403	17.1486	52.2644	-24.8134	26.9016	-1.83734	-38.606	17.2314	18.7981	-31.2772	34.8982	34.5243	-10.5699	79.2375	-25.8337	-30.7185	95.461	-32.7976	-2.94502	106.379	-9.7862	-29.9813	
36	0.3	122.324	3.77403	-20.7342	116.972	27.8264	-38.151	112.751	48.7406	-64.0622	105.733	63.3974	-76.8371	92.2474	-6.28333	-90.5844	90.0063	8.00501	-115.321	77.5868	25.5559	-130.686	66.6813	-13.7908	-89.0925	49.7056	-0.843155	-107.72	32.8105	27.8628	-124.386	47.5929	-4.16099	-65.9225	35.7451	26.88	-67.7637	42.4682	49.8601	-46.8482	35.3187	-9.01547	-45.8562	30.7714	22.3885	-44.9447	47.5457	33.4201	-30.0236	77.1014	-38.1056	-29.5137	87.9289	-45.2633	-5.3739	110.331	-31.5291	-25.4393	
37	0.308333	133.833	-27.2878	-13.4363	137.461	-6.83106	-39.8758	139.417	8.41642	-69.7122	135.002	20.3017	-87.1758	115.837	-47.1626	-87.0316	116.642	-40.4779	-115.023	117.693	-21.4293	-137.835	86.2562	-53.2671	-89.7562	74.733	-41.4751	-114.924	64.9098	-14.3751	-136.292	66.6575	-36.7213	-73.9346	60.8647	-4.34902	-83.2996	67.9769	20.0324	-68.502	49.9969	-34.4901	-57.2854	50.5924	-5.84024	-62.9264	69.1768	8.39725	-45.9076	84.3362	-67.1811	-25.6847	87.3461	-69.7358	0.531055	117.025	-61.5457	-23.3697	
38	0.316667	150.332	-56.0157	-6.07434	157.046	-42.4208	-35.8951	163.538	-34.1916	-66.6371	162.027	-25.2743	-85.2576	145.45	-93.2904	-78.6767	154.049	-90.5414	-105.564	153.801	-76.1173	-130.367	113.454	-99.7438	-80.2405	113.677	-94.5691	-110.601	109.007	-71.602	-140.199	95.2372	-78.326	-77.2355	88.317	-55.93	-92.2471	94.0931	-24.0802	-84.9676	76.0132	-76.7901	-60.0211	72.6325	-54.0022	-74.7274	86.8506	-31.2765	-63.4773	101.85	-96.4203	-18.2338	103.015	-93.5953	8.12659	133.026	-92.936	-9.50996	
39	0.325	168.965	-70.8717	-1.4678	173.328	-65.1663	-35.907	178.634	-61.0705	-62.98	179.145	-54.6933	-83.2867	176.248	-120.153	-57.9217	189.353	-124.204	-86.0104	190.974	-114.139	-114.879	151.412	-136.238	-68.1282	149.331	-137.491	-99.9867	143.451	-121.151	-130.844	121.689	-117.918	-70.8294	118.124	-98.9803	-91.6987	115.17	-66.5289	-92.4027	106.518	-116.063	-57.2161	99.9977	-95.9319	-77.2408	105.994	-67.7558	-69.3135	123.558	-124.268	-9.14253	119.37	-113.171	19.4326	156.502	-111.489	2.41806	
40	0.333333	176.407	-66.4639	-2.86343	177.555	-60.09	-33.7431	184.351	-54.9759	-61.9677	184.202	-56.395	-85.2367	204.882	-115.662	-49.6561	216.06	-119.714	-78.0622	214.469	-111.298	-109.558	182.438	-141.014	-55.6105	188	-144.495	-84.6687	179.978	-137.055	-120.83	151.618	-133.608	-58.7147	144.545	-120.894	-86.2913	128.64	-95.9291	-94.8304	131.689	-136.179	-50.8728	122.724	-119.789	-72.7145	117.502	-92.0596	-69.5505	154.748	-129.21	-2.11238	144.849	-119.425	25.3109	174.084	-105.713	8.72896	
